<?xml version="1.0" encoding="UTF-8"?>
<!DOCTYPE svg PUBLIC "-//W3C//DTD SVG 1.1//EN" "http://www.w3.org/Graphics/SVG/1.1/DTD/svg11.dtd">
<svg xmlns="http://www.w3.org/2000/svg" version="1.1" width="1080px" height="1080px" style="shape-rendering:geometricPrecision; text-rendering:geometricPrecision; image-rendering:optimizeQuality; fill-rule:evenodd; clip-rule:evenodd" xmlns:xlink="http://www.w3.org/1999/xlink">
<g><path style="opacity:0.98" fill="#263582" d="M 271.5,245.5 C 272.5,245.5 273.5,245.5 274.5,245.5C 280.333,325.155 286.166,404.822 292,484.5C 318.7,456.802 345.033,428.802 371,400.5C 377.211,530.12 382.545,659.787 387,789.5C 372.677,702.564 358.677,615.564 345,528.5C 317.992,561.005 290.825,593.338 263.5,625.5C 242.059,505.189 220.726,384.856 199.5,264.5C 223.509,257.832 247.509,251.499 271.5,245.5 Z"/></g>
<g><path style="opacity:0.134" fill="#000001" d="M 143.5,320.5 C 146.607,320.351 149.607,320.851 152.5,322C 172.333,345.833 192.167,369.667 212,393.5C 216.112,398.95 216.446,404.617 213,410.5C 167.852,461.412 152.185,520.412 166,587.5C 183.869,653.707 224.702,699.54 288.5,725C 307.034,731.174 326.034,735.174 345.5,737C 349.395,737.933 351.562,740.433 352,744.5C 352.667,776.833 352.667,809.167 352,841.5C 351.648,845.521 349.482,848.021 345.5,849C 331.5,849.667 317.5,849.667 303.5,849C 298.378,846.946 295.545,843.113 295,837.5C 291.728,825.242 288.228,813.076 284.5,801C 263.532,794.845 243.532,786.512 224.5,776C 222.833,775.333 221.167,775.333 219.5,776C 208.5,782.333 197.5,788.667 186.5,795C 181.833,797 177.167,797 172.5,795C 148.638,771.472 125.138,747.639 102,723.5C 100,719.833 100,716.167 102,712.5C 108.833,700.167 115.667,687.833 122.5,675.5C 111.555,655.83 103.055,635.163 97,613.5C 83.3198,608.941 69.4865,604.774 55.5,601C 52.4173,600.214 50.2506,598.381 49,595.5C 47.8605,577.883 47.3605,560.217 47.5,542.5C 47.3605,524.783 47.8605,507.117 49,489.5C 50.2506,486.619 52.4173,484.786 55.5,484C 69.4865,480.226 83.3198,476.059 97,471.5C 103.055,449.837 111.555,429.17 122.5,409.5C 115.667,397.167 108.833,384.833 102,372.5C 99.9609,368.013 100.294,363.68 103,359.5C 116.092,345.905 129.592,332.905 143.5,320.5 Z"/></g>
<g><path style="opacity:1" fill="#253481" d="M 143.5,323.5 C 164.695,348.533 185.362,374.033 205.5,400C 155.379,456.555 139.546,521.722 158,595.5C 184.594,675.764 239.427,723.597 322.5,739C 328.796,740.012 335.129,740.512 341.5,740.5C 341.5,773.167 341.5,805.833 341.5,838.5C 327.833,838.5 314.167,838.5 300.5,838.5C 296.673,822.521 292.34,806.687 287.5,791C 263.365,784.903 240.698,775.403 219.5,762.5C 206.671,769.414 194.004,776.58 181.5,784C 179.35,785.59 177.017,786.257 174.5,786C 151.333,762.833 128.167,739.667 105,716.5C 104.333,715.5 104.333,714.5 105,713.5C 112.967,699.732 120.8,685.898 128.5,672C 116.251,650.93 106.918,628.597 100.5,605C 100.095,604.055 99.428,603.388 98.5,603C 83.177,598.725 67.8436,594.558 52.5,590.5C 52.1668,556.493 52.5001,522.493 53.5,488.5C 69.122,483.959 84.7886,479.625 100.5,475.5C 106.307,451.081 115.64,428.081 128.5,406.5C 120.684,392.195 112.684,378.028 104.5,364C 117.327,350.34 130.327,336.84 143.5,323.5 Z"/></g>
<g><path style="opacity:0.943" fill="#263582" d="M 381.5,392.5 C 384.785,392.269 387.285,393.603 389,396.5C 390.102,411.822 391.102,427.155 392,442.5C 397.866,436.969 403.366,431.135 408.5,425C 413.457,422.418 417.623,423.251 421,427.5C 421.837,431.295 421.504,434.961 420,438.5C 411,447.5 402,456.5 393,465.5C 392.171,470.533 392.338,475.533 393.5,480.5C 404.984,470.184 416.317,459.684 427.5,449C 438.014,447.859 441.514,452.359 438,462.5C 423.167,476.667 408.333,490.833 393.5,505C 394.3,509.08 394.8,513.247 395,517.5C 405.833,508.667 416.667,499.833 427.5,491C 433.181,487.447 437.681,488.614 441,494.5C 441.167,497.667 441.333,500.833 441.5,504C 440.71,517.511 440.21,531.011 440,544.5C 443.683,541.813 447.017,538.813 450,535.5C 452,514.833 454,494.167 456,473.5C 460.017,465.321 465.017,464.655 471,471.5C 470.12,489.176 469.12,506.842 468,524.5C 472.297,522.196 475.964,519.196 479,515.5C 480.667,502.833 482.333,490.167 484,477.5C 484.881,470.636 488.714,468.136 495.5,470C 497.333,470.5 498.5,471.667 499,473.5C 499.174,483.929 498.507,494.262 497,504.5C 507.588,497.123 518.088,489.623 528.5,482C 538.338,480.47 542.171,484.637 540,494.5C 528.951,503.057 517.784,511.391 506.5,519.5C 513.941,522.815 521.607,525.648 529.5,528C 534.325,532.669 534.658,537.669 530.5,543C 527.634,544.457 524.634,544.79 521.5,544C 510.408,539.969 499.241,536.136 488,532.5C 483.757,534.372 479.923,536.872 476.5,540C 490.243,546.202 504.243,551.868 518.5,557C 523.833,562.333 523.833,567.667 518.5,573C 515.072,573.701 511.738,573.368 508.5,572C 491.794,565.598 475.127,559.098 458.5,552.5C 454.988,554.757 451.654,557.257 448.5,560C 462.852,566.258 476.685,573.425 490,581.5C 492.697,587.311 491.53,592.144 486.5,596C 474.5,602.667 462.5,609.333 450.5,616C 454.084,618.041 457.584,620.208 461,622.5C 478.423,613.872 495.923,605.372 513.5,597C 522.87,596.868 526.037,601.368 523,610.5C 522.167,611.333 521.333,612.167 520.5,613C 506.711,619.395 493.044,626.061 479.5,633C 483.491,635.578 487.657,637.745 492,639.5C 503.66,635.088 515.16,630.254 526.5,625C 530.886,623.943 534.053,625.443 536,629.5C 538.273,636.247 536.106,640.747 529.5,643C 523.085,645.472 516.752,648.138 510.5,651C 523.085,657.873 535.252,665.373 547,673.5C 549.236,677.99 548.736,682.156 545.5,686C 542.97,687.422 540.303,687.755 537.5,687C 526.333,680.5 515.167,674 504,667.5C 505.849,677.415 507.182,687.415 508,697.5C 504.196,703.377 499.529,704.044 494,699.5C 490.519,685.576 487.352,671.576 484.5,657.5C 483.99,655.912 482.99,654.745 481.5,654C 478.671,652.753 476.005,651.253 473.5,649.5C 473.167,650.333 472.833,651.167 472.5,652C 475.275,667.315 477.941,682.648 480.5,698C 479.595,705.597 475.595,708.264 468.5,706C 466.951,704.786 465.785,703.286 465,701.5C 461.559,682.519 458.225,663.519 455,644.5C 454.79,641.766 453.956,639.266 452.5,637C 449.705,635.7 447.039,634.2 444.5,632.5C 444.167,634.167 443.833,635.833 443.5,637.5C 445.662,653.45 446.829,669.45 447,685.5C 442.774,689.25 438.274,689.416 433.5,686C 422.932,677.799 412.099,669.966 401,662.5C 400.172,666.871 400.339,671.205 401.5,675.5C 417.823,688.329 433.656,701.662 449,715.5C 451.371,724.111 448.204,728.278 439.5,728C 427.023,718.357 414.689,708.523 402.5,698.5C 401.334,703.522 401.501,708.522 403,713.5C 413.189,722.266 423.189,731.266 433,740.5C 435.236,744.99 434.736,749.156 431.5,753C 428.97,754.422 426.303,754.755 423.5,754C 416.707,748.875 410.207,743.375 404,737.5C 404.055,752.832 404.055,768.165 404,783.5C 402.285,786.397 399.785,787.731 396.5,787.5C 391.314,655.84 386.314,524.173 381.5,392.5 Z M 424.5,516.5 C 424.535,529.519 424.035,542.519 423,555.5C 414.511,562.078 405.844,568.411 397,574.5C 396.037,562.841 395.704,551.175 396,539.5C 405.085,531.241 414.585,523.574 424.5,516.5 Z M 430.5,571.5 C 442.258,575.867 453.591,581.2 464.5,587.5C 455.999,592.918 447.332,598.085 438.5,603C 436.35,604.59 434.017,605.257 431.5,605C 423.167,599.833 414.833,594.667 406.5,589.5C 414.53,583.491 422.53,577.491 430.5,571.5 Z M 429.5,661.5 C 419.608,654.632 409.775,647.632 400,640.5C 399.02,629.152 398.187,617.818 397.5,606.5C 397.833,606.167 398.167,605.833 398.5,605.5C 407.465,610.635 416.298,615.968 425,621.5C 427.337,634.704 428.837,648.037 429.5,661.5 Z"/></g>
<g><path style="opacity:0.978" fill="#263582" d="M 603.5,440.5 C 617.183,440.167 630.85,440.501 644.5,441.5C 654.833,460.167 665.167,478.833 675.5,497.5C 692.656,478.842 709.656,460.008 726.5,441C 740.163,440.5 753.829,440.333 767.5,440.5C 759.11,489.173 750.61,537.839 742,586.5C 728.747,588.471 715.247,589.138 701.5,588.5C 706.332,561.176 710.832,533.842 715,506.5C 700,524.167 685,541.833 670,559.5C 667.872,562.458 665.206,563.124 662,561.5C 652.333,542.833 642.667,524.167 633,505.5C 627.733,533.1 622.9,560.767 618.5,588.5C 604.829,588.667 591.163,588.5 577.5,588C 586.611,538.943 595.277,489.777 603.5,440.5 Z"/></g>
<g><path style="opacity:0.979" fill="#263582" d="M 826.5,440.5 C 842.5,440.5 858.5,440.5 874.5,440.5C 883.049,489.797 891.383,539.13 899.5,588.5C 885.167,588.5 870.833,588.5 856.5,588.5C 855.167,578.167 853.833,567.833 852.5,557.5C 837.83,557.333 823.163,557.5 808.5,558C 803.229,567.876 798.229,577.876 793.5,588C 779.155,588.833 764.822,588.666 750.5,587.5C 776.114,538.603 801.448,489.603 826.5,440.5 Z M 841.5,489.5 C 842.117,489.611 842.617,489.944 843,490.5C 844.696,502.873 846.529,515.206 848.5,527.5C 840.167,528.833 831.833,528.833 823.5,527.5C 829.511,514.812 835.511,502.145 841.5,489.5 Z"/></g>
<g><path style="opacity:0.977" fill="#263582" d="M 936.5,440.5 C 979.168,440.333 1021.83,440.5 1064.5,441C 1033.83,479.333 1003.17,517.667 972.5,556C 994.497,556.5 1016.5,556.667 1038.5,556.5C 1037.05,567.199 1035.38,577.866 1033.5,588.5C 989.499,588.667 945.499,588.5 901.5,588C 932.167,549.667 962.833,511.333 993.5,473C 972.836,472.5 952.169,472.333 931.5,472.5C 932.908,461.793 934.575,451.126 936.5,440.5 Z"/></g>
<g><path style="opacity:0.679" fill="#263582" d="M 699.5,610.5 C 700.833,610.5 702.167,610.5 703.5,610.5C 703.99,612.948 703.157,614.615 701,615.5C 698.389,614.5 697.889,612.833 699.5,610.5 Z"/></g>
<g><path style="opacity:0.678" fill="#263582" d="M 653.5,611.5 C 655.167,611.5 656.833,611.5 658.5,611.5C 658.5,619.167 658.5,626.833 658.5,634.5C 656.833,634.5 655.167,634.5 653.5,634.5C 653.5,626.833 653.5,619.167 653.5,611.5 Z"/></g>
<g><path style="opacity:0.781" fill="#263582" d="M 800.5,611.5 C 801.833,611.5 803.167,611.5 804.5,611.5C 804.5,619.167 804.5,626.833 804.5,634.5C 802.549,634.773 801.049,634.107 800,632.5C 794.269,635.804 789.935,634.471 787,628.5C 786.277,618.374 790.61,615.041 800,618.5C 800.497,616.19 800.663,613.857 800.5,611.5 Z M 793.5,620.5 C 797.193,620.186 799.527,621.852 800.5,625.5C 798.921,630.595 796.087,631.595 792,628.5C 791.109,625.502 791.609,622.836 793.5,620.5 Z"/></g>
<g><path style="opacity:0.847" fill="#263582" d="M 962.5,611.5 C 963.833,611.5 965.167,611.5 966.5,611.5C 966.5,619.167 966.5,626.833 966.5,634.5C 965.167,634.5 963.833,634.5 962.5,634.5C 962.5,626.833 962.5,619.167 962.5,611.5 Z"/></g>
<g><path style="opacity:0.781" fill="#263582" d="M 1003.5,611.5 C 1004.83,611.5 1006.17,611.5 1007.5,611.5C 1007.5,619.167 1007.5,626.833 1007.5,634.5C 1005.55,634.773 1004.05,634.107 1003,632.5C 997.269,635.804 992.935,634.471 990,628.5C 989.277,618.374 993.61,615.041 1003,618.5C 1003.5,616.19 1003.66,613.857 1003.5,611.5 Z M 996.5,620.5 C 1000.19,620.186 1002.53,621.852 1003.5,625.5C 1001.92,630.595 999.087,631.595 995,628.5C 994.109,625.502 994.609,622.836 996.5,620.5 Z"/></g>
<g><path style="opacity:0.757" fill="#263582" d="M 619.5,612.5 C 623.257,612.071 626.757,612.737 630,614.5C 632.158,616.694 631.825,618.027 629,618.5C 627.072,618.067 625.239,617.4 623.5,616.5C 622,616.453 621,617.119 620.5,618.5C 622.995,620.843 625.995,622.343 629.5,623C 633.104,629.593 631.104,633.427 623.5,634.5C 618.777,634.444 616.444,632.111 616.5,627.5C 619.315,627.892 621.815,628.892 624,630.5C 625.607,630.231 626.774,629.397 627.5,628C 624.339,625.888 621.006,624.054 617.5,622.5C 615.81,618.631 616.476,615.298 619.5,612.5 Z"/></g>
<g><path style="opacity:0.789" fill="#263582" d="M 840.5,612.5 C 842.288,612.215 843.955,612.548 845.5,613.5C 848.438,620.314 850.771,627.314 852.5,634.5C 849.255,634.707 847.255,633.207 846.5,630C 843.854,629.503 841.187,629.336 838.5,629.5C 838.817,633.172 837.151,634.838 833.5,634.5C 835.427,627.051 837.761,619.717 840.5,612.5 Z M 842.5,618.5 C 843.67,620.65 844.67,622.984 845.5,625.5C 843.833,626.833 842.167,626.833 840.5,625.5C 841.577,623.271 842.244,620.937 842.5,618.5 Z"/></g>
<g><path style="opacity:0.799" fill="#263582" d="M 923.5,612.5 C 924.833,612.5 926.167,612.5 927.5,612.5C 927.5,615.5 927.5,618.5 927.5,621.5C 930.5,621.5 933.5,621.5 936.5,621.5C 936.5,618.5 936.5,615.5 936.5,612.5C 937.833,612.5 939.167,612.5 940.5,612.5C 940.5,619.833 940.5,627.167 940.5,634.5C 939.167,634.5 937.833,634.5 936.5,634.5C 936.5,631.5 936.5,628.5 936.5,625.5C 933.5,625.5 930.5,625.5 927.5,625.5C 927.5,628.5 927.5,631.5 927.5,634.5C 926.167,634.5 924.833,634.5 923.5,634.5C 923.5,627.167 923.5,619.833 923.5,612.5 Z"/></g>
<g><path style="opacity:0.757" fill="#263582" d="M 639.5,616.5 C 647.986,616.151 651.82,620.151 651,628.5C 648.647,633.426 644.814,635.26 639.5,634C 631.555,628.17 631.555,622.336 639.5,616.5 Z M 640.5,620.5 C 644.193,620.186 646.527,621.852 647.5,625.5C 645.921,630.595 643.087,631.595 639,628.5C 638.109,625.502 638.609,622.836 640.5,620.5 Z"/></g>
<g><path style="opacity:0.797" fill="#263582" d="M 661.5,616.5 C 662.833,616.5 664.167,616.5 665.5,616.5C 665.335,620.182 665.501,623.848 666,627.5C 667.826,631.037 670.16,631.371 673,628.5C 673.499,624.514 673.666,620.514 673.5,616.5C 674.833,616.5 676.167,616.5 677.5,616.5C 677.5,622.5 677.5,628.5 677.5,634.5C 673.873,633.642 670.206,633.476 666.5,634C 665.069,633.535 663.903,632.701 663,631.5C 661.612,626.628 661.112,621.628 661.5,616.5 Z"/></g>
<g><path style="opacity:0.76" fill="#263582" d="M 685.5,616.5 C 690.311,615.74 693.978,617.407 696.5,621.5C 695.667,621.833 694.833,622.167 694,622.5C 686.961,618.545 683.961,620.545 685,628.5C 685.5,629 686,629.5 686.5,630C 689.219,630.528 691.719,630.028 694,628.5C 694.833,628.833 695.667,629.167 696.5,629.5C 691.727,635.711 686.56,636.045 681,630.5C 678.807,624.593 680.307,619.927 685.5,616.5 Z"/></g>
<g><path style="opacity:0.803" fill="#263582" d="M 699.5,616.5 C 700.833,616.5 702.167,616.5 703.5,616.5C 703.5,622.5 703.5,628.5 703.5,634.5C 702.167,634.5 700.833,634.5 699.5,634.5C 699.5,628.5 699.5,622.5 699.5,616.5 Z"/></g>
<g><path style="opacity:0.769" fill="#263582" d="M 711.5,616.5 C 721.179,615.678 725.012,620.011 723,629.5C 718.062,635.654 712.728,635.988 707,630.5C 705.19,624.519 706.69,619.852 711.5,616.5 Z M 712.5,620.5 C 717.665,620.162 719.831,622.495 719,627.5C 716.679,630.917 714.012,631.25 711,628.5C 710.109,625.502 710.609,622.836 712.5,620.5 Z"/></g>
<g><path style="opacity:0.795" fill="#263582" d="M 726.5,616.5 C 730.127,617.358 733.794,617.524 737.5,617C 738.931,617.465 740.097,618.299 741,619.5C 741.499,624.489 741.666,629.489 741.5,634.5C 740.167,634.5 738.833,634.5 737.5,634.5C 737.666,630.154 737.499,625.821 737,621.5C 734.67,619.968 732.67,620.302 731,622.5C 730.501,626.486 730.334,630.486 730.5,634.5C 729.167,634.5 727.833,634.5 726.5,634.5C 726.5,628.5 726.5,622.5 726.5,616.5 Z"/></g>
<g><path style="opacity:0.724" fill="#263582" d="M 749.5,616.5 C 758.006,615.341 762.006,619.008 761.5,627.5C 757.445,627.176 753.445,627.509 749.5,628.5C 750.171,629.946 751.338,630.612 753,630.5C 755.601,628.847 758.435,628.347 761.5,629C 758.151,634.567 753.484,635.9 747.5,633C 744.171,628.863 743.671,624.363 746,619.5C 747.145,618.364 748.312,617.364 749.5,616.5 Z M 750.5,620.5 C 752.977,620.051 754.977,620.717 756.5,622.5C 754.167,623.833 751.833,623.833 749.5,622.5C 749.863,621.817 750.196,621.15 750.5,620.5 Z"/></g>
<g><path style="opacity:0.741" fill="#263582" d="M 767.5,616.5 C 770.32,616.248 772.986,616.748 775.5,618C 776.38,619.356 776.714,620.856 776.5,622.5C 774.334,622.421 772.334,621.754 770.5,620.5C 769.263,620.556 768.263,621.056 767.5,622C 770.693,623.054 773.693,624.554 776.5,626.5C 777.886,629.901 776.886,632.401 773.5,634C 768.13,635.488 764.797,633.655 763.5,628.5C 766.09,628.396 768.423,629.063 770.5,630.5C 771.167,630.167 771.833,629.833 772.5,629.5C 769.772,627.747 766.939,626.08 764,624.5C 762.78,620.707 763.947,618.04 767.5,616.5 Z"/></g>
<g><path style="opacity:0.752" fill="#263582" d="M 812.5,616.5 C 820.551,615.884 824.218,619.551 823.5,627.5C 819.486,627.334 815.486,627.501 811.5,628C 812.459,629.464 813.792,630.297 815.5,630.5C 817.239,629.6 819.072,628.933 821,628.5C 821.833,628.833 822.667,629.167 823.5,629.5C 818.727,635.711 813.56,636.045 808,630.5C 805.807,624.593 807.307,619.927 812.5,616.5 Z M 813.5,620.5 C 816.022,620.128 818.022,620.961 819.5,623C 816.833,623.667 814.167,623.667 811.5,623C 812.381,622.292 813.047,621.458 813.5,620.5 Z"/></g>
<g><path style="opacity:0.787" fill="#263582" d="M 859.5,616.5 C 862.365,616.055 864.865,616.722 867,618.5C 868.049,616.893 869.549,616.227 871.5,616.5C 871.666,623.508 871.5,630.508 871,637.5C 867.666,642.648 863.166,643.814 857.5,641C 854.505,638.783 854.338,636.95 857,635.5C 859.062,636.729 861.229,637.729 863.5,638.5C 866.975,637.857 868.141,635.857 867,632.5C 859.665,635.915 855.165,633.582 853.5,625.5C 853.955,621.394 855.955,618.394 859.5,616.5 Z M 860.5,620.5 C 865.665,620.162 867.831,622.495 867,627.5C 864.679,630.917 862.012,631.25 859,628.5C 858.109,625.502 858.609,622.836 860.5,620.5 Z"/></g>
<g><path style="opacity:0.779" fill="#263582" d="M 875.5,616.5 C 876.833,616.5 878.167,616.5 879.5,616.5C 879.334,620.514 879.501,624.514 880,628.5C 882.84,631.371 885.174,631.037 887,627.5C 887.499,623.848 887.665,620.182 887.5,616.5C 888.833,616.5 890.167,616.5 891.5,616.5C 891.5,622.5 891.5,628.5 891.5,634.5C 888.47,633.471 885.47,633.471 882.5,634.5C 880.407,634.514 878.574,633.848 877,632.5C 875.603,627.292 875.103,621.959 875.5,616.5 Z"/></g>
<g><path style="opacity:0.76" fill="#263582" d="M 899.5,616.5 C 902.272,616.22 904.772,616.887 907,618.5C 908.049,616.893 909.549,616.227 911.5,616.5C 911.5,622.5 911.5,628.5 911.5,634.5C 909.549,634.773 908.049,634.107 907,632.5C 897.61,635.959 893.277,632.626 894,622.5C 895.021,619.65 896.854,617.65 899.5,616.5 Z M 900.5,620.5 C 904.193,620.186 906.527,621.852 907.5,625.5C 905.921,630.595 903.087,631.595 899,628.5C 898.109,625.502 898.609,622.836 900.5,620.5 Z"/></g>
<g><path style="opacity:0.752" fill="#263582" d="M 948.5,616.5 C 956.551,615.884 960.218,619.551 959.5,627.5C 955.486,627.334 951.486,627.501 947.5,628C 948.459,629.464 949.792,630.297 951.5,630.5C 953.239,629.6 955.072,628.933 957,628.5C 957.833,628.833 958.667,629.167 959.5,629.5C 954.727,635.711 949.56,636.045 944,630.5C 941.807,624.593 943.307,619.927 948.5,616.5 Z M 949.5,620.5 C 952.022,620.128 954.022,620.961 955.5,623C 952.833,623.667 950.167,623.667 947.5,623C 948.381,622.292 949.047,621.458 949.5,620.5 Z"/></g>
<g><path style="opacity:0.723" fill="#263582" d="M 974.5,616.5 C 978.871,617.538 983.205,617.538 987.5,616.5C 987.5,622.5 987.5,628.5 987.5,634.5C 983.205,633.641 978.872,633.474 974.5,634C 969.845,631.103 968.345,626.937 970,621.5C 971.025,619.313 972.525,617.646 974.5,616.5 Z M 976.5,620.5 C 981.989,620.504 983.822,623.171 982,628.5C 976.658,631.52 973.991,629.854 974,623.5C 975.045,622.627 975.878,621.627 976.5,620.5 Z"/></g>
<g><path style="opacity:0.793" fill="#263582" d="M 1015.5,616.5 C 1018.36,616.055 1020.86,616.722 1023,618.5C 1024.05,616.893 1025.55,616.227 1027.5,616.5C 1027.5,622.5 1027.5,628.5 1027.5,634.5C 1025.55,634.773 1024.05,634.107 1023,632.5C 1015.66,635.915 1011.16,633.582 1009.5,625.5C 1009.95,621.394 1011.95,618.394 1015.5,616.5 Z M 1016.5,620.5 C 1021.66,620.162 1023.83,622.495 1023,627.5C 1020.68,630.917 1018.01,631.25 1015,628.5C 1014.11,625.502 1014.61,622.836 1016.5,620.5 Z"/></g>
</svg>
